# xmcd
# Copyright (C) 1995-1998 Ti Kan
#
# Track frame offsets:
#       182
#       9977
#       19915
#       28897
#       39135
#       48367
#       60572
#       69482
#       77570
#       88950
#       100135
#       110065
#       122847
#       131472
#       141865
#       151587
#       161685
#       172232
#       188190
#       202907
#
# Disc length: 2840 seconds
#
# Revision: 0
# Processed by: cddbd v1.5.2PL0 Copyright (c) Steve Scherf et al.
# Submitted via: CD-Transfer v1.0
#
DISCID=090b1614
DTITLE=Elvis Presley - Elvis Gold
DYEAR=1995
DGENRE=
TTITLE0=Heartbreak Hotel
TTITLE1=My Baby Left Me
TTITLE2=Tutti Frutti
TTITLE3=Hound Dog
TTITLE4=Don`t Be Cruel
TTITLE5=Love Me Tender
TTITLE6=All Shock Up
TTITLE7=(Let Me Be Your) Teddy Bear
TTITLE8=One Night
TTITLE9=Jailhouse Rock
TTITLE10=Treat Me Nice
TTITLE11=Don`t 
TTITLE12=Heard Headed Woman
TTITLE13=Trouble
TTITLE14=King Creole
TTITLE15=A Big Hunk O´ Love
TTITLE16=Stuck On You
TTITLE17=Fever
TTITLE18=It`s Now Or Never
TTITLE19=I Gotta Know
EXTD=
EXTT0=
EXTT1=
EXTT2=
EXTT3=
EXTT4=
EXTT5=
EXTT6=
EXTT7=
EXTT8=
EXTT9=
EXTT10=
EXTT11=
EXTT12=
EXTT13=
EXTT14=
EXTT15=
EXTT16=
EXTT17=
EXTT18=
EXTT19=
PLAYORDER=
